Coordinates
version=1
nRows=6
nColumns=63
inDegrees=yes

Units are S.I. units (second, meters, Newtons, ...)
If the header above contains a line with 'inDegrees', this indicates whether rotational values are in degrees (yes) or radians (no).

endheader
time	pelvis_tilt	pelvis_list	pelvis_rotation	pelvis_tx	pelvis_ty	pelvis_tz	hip_flexion_r	hip_adduction_r	hip_rotation_r	knee_angle_r	knee_angle_r_beta	ankle_angle_r	subtalar_angle_r	mtp_angle_r	hip_flexion_l	hip_adduction_l	hip_rotation_l	knee_angle_l	knee_angle_l_beta	ankle_angle_l	subtalar_angle_l	mtp_angle_l	L5_S1_Flex_Ext	L5_S1_Lat_Bending	L5_S1_axial_rotation	L4_L5_Flex_Ext	L4_L5_Lat_Bending	L4_L5_axial_rotation	L3_L4_Flex_Ext	L3_L4_Lat_Bending	L3_L4_axial_rotation	L2_L3_Flex_Ext	L2_L3_Lat_Bending	L2_L3_axial_rotation	L1_L2_Flex_Ext	L1_L2_Lat_Bending	L1_L2_axial_rotation	L1_T12_Flex_Ext	L1_T12_Lat_Bending	L1_T12_axial_rotation	Abs_r3	Abs_r2	Abs_r1	Abs_t1	Abs_t2	neck_flexion	neck_bending	neck_rotation	arm_flex_r	arm_add_r	arm_rot_r	elbow_flex_r	pro_sup_r	wrist_flex_r	wrist_dev_r	arm_flex_l	arm_add_l	arm_rot_l	elbow_flex_l	pro_sup_l	wrist_flex_l	wrist_dev_l
      4.15000000	     -5.16350393	     -3.23978780	     96.90394772	      0.17779962	      0.93962305	      0.67244752	     -4.03339879	     -1.43944448	     -2.61758105	      3.17916054	      0.05548682	     21.01921990	    -10.94417411	      0.00000000	      0.88071312	      2.07654962	      6.05144787	      8.57384619	      0.14964185	     27.70226707	      5.62224554	      0.00000000	     -0.18817966	      0.53627391	     -0.52690800	     -0.34946846	      0.71324431	     -0.55983975	     -0.30916037	      1.30389640	     -0.55983975	     -0.21507054	      1.30389640	     -0.46104450	     -0.17474364	      1.09356977	     -0.42811275	     -0.10752586	      0.83068829	     -0.39518100	     -1.34414853	      6.06643777	     -2.93050423	      0.00000000	      0.00000000	     15.89908856	    -10.22321514	     12.77794962	     18.91952745	    -11.35184837	    141.66694913	     10.97690698	      3.59442972	     -8.07665303	     -9.97384747	     -8.19347495	     -6.24110946	    -29.26028557	    114.88581446	     82.00410569	     -5.48684410	     -1.48732126
      4.16666667	     -5.16291975	     -3.40982486	     96.77151809	      0.17859088	      0.93899794	      0.67181028	     -4.02735021	     -1.43201078	     -2.22226786	      2.93874434	      0.05129076	     21.32612711	    -10.68095420	      0.00000000	      0.88664638	      2.06759786	      5.93781808	      8.48449971	      0.14808246	     27.81988445	      5.53309190	      0.00000000	     -0.15417860	      0.51695937	     -0.58282076	     -0.28632507	      0.68755596	     -0.61924706	     -0.25330002	      1.25693500	     -0.61924706	     -0.17621072	      1.25693500	     -0.50996817	     -0.14317024	      1.05418354	     -0.47354187	     -0.08809765	      0.80077006	     -0.43711557	     -1.10128230	      5.84794773	     -3.24147423	      0.00000000	      0.00000000	     16.29472152	    -10.03250666	     12.71468670	     18.87948500	    -11.22997169	    141.41965607	     11.21686365	      3.46276278	     -7.98353429	    -10.00990751	     -7.67963331	     -6.53252075	    -28.89375865	    112.89542522	     81.72864379	     -5.85217229	     -0.74520228
      4.18333333	     -5.46999083	     -3.12280882	     95.67780819	      0.18114484	      0.93865046	      0.67052470	     -4.44870132	     -1.74866798	     -1.33544414	      2.75140409	      0.04802106	     21.83420759	     -9.77175275	      0.00000000	      0.12226811	      2.29301817	      5.21575111	      8.11475754	      0.14162924	     27.76414778	      5.23134144	      0.00000000	     -0.18306342	      0.44594853	     -0.30609292	     -0.33996707	      0.59311155	     -0.32522373	     -0.30075489	      1.08427926	     -0.32522373	     -0.20922318	      1.08427926	     -0.26783131	     -0.16999269	      0.90937825	     -0.24870050	     -0.10460244	      0.69077428	     -0.22956969	     -1.30760369	      5.04465898	     -1.70239699	      0.00000000	      0.00000000	     16.30284543	     -9.59187230	     10.82841151	     18.24139119	    -11.50446574	    136.20742636	     11.91820876	      2.87551290	     -7.04582557	    -10.14087020	     -6.30716323	     -7.57274914	    -26.69792442	    110.55510158	     78.23876054	     -8.36113059	      2.19567021
      4.20000000	     -5.55035641	     -2.83876186	     94.98436220	      0.18296235	      0.93828687	      0.66922499	     -4.90119625	     -1.81073191	     -0.65246612	      2.53581601	      0.04425834	     22.23792472	     -9.13477415	      0.00000000	     -0.53368665	      2.35743088	      5.40854988	      7.87577655	      0.13745823	     27.58741772	      4.17502780	      0.00000000	     -0.19899403	      0.41900650	     -0.18176919	     -0.36955181	      0.55727865	     -0.19312976	     -0.32692729	      1.01877242	     -0.19312976	     -0.22743028	      1.01877242	     -0.15904804	     -0.18478586	      0.85443806	     -0.14768746	     -0.11370519	      0.64904108	     -0.13632689	     -1.42139446	      4.73988538	     -1.01094569	      0.00000000	      0.00000000	     16.18745256	     -9.40579627	     10.44108736	     17.72082714	    -12.54045072	    124.88482599	     14.12130548	      6.55468834	     -7.29259016	     -9.42277268	     -4.94334395	     -8.27655155	    -25.25582511	    106.97764453	     75.31718892	     -8.55580230	      2.58372547
      4.21666667	     -5.70051876	     -2.48830481	     93.79829523	      0.18577227	      0.93792701	      0.66715753	     -5.40779299	     -1.97116241	      0.56500031	      2.30062956	      0.04015356	     22.65055555	     -8.56135694	      0.00000000	     -1.47636608	      2.46085498	      4.92888423	      7.24894053	      0.12651788	     27.23510519	      3.53550488	      0.00000000	     -0.21461297	      0.37835610	      0.01109833	     -0.39855775	      0.50321361	      0.01179197	     -0.35258765	      0.91993502	      0.01179197	     -0.24528117	      0.91993502	      0.00971104	     -0.19928961	      0.77154376	      0.00901739	     -0.12262985	      0.58607360	      0.00832375	     -1.53295900	      4.28003987	      0.06172557	      0.00000000	      0.00000000	     15.82635602	     -9.07069411	      9.94092696	     17.14970130	    -12.35428577	    123.13213964	     13.97691433	      5.46754568	     -6.48101347	     -9.09138383	     -3.52572912	     -9.04973245	    -24.07596665	    102.81060662	     75.33415350	     -8.43051764	      3.16475010
      4.23333333	     -5.79874616	     -2.09223578	     92.44856640	      0.18875631	      0.93762416	      0.66483669	     -5.94171384	     -2.11289778	      1.94099993	      2.04629523	      0.03571459	     22.97848326	     -8.05663690	      0.00000000	     -2.53747844	      2.55082565	      4.56880407	      6.40956778	      0.11186806	     26.69683094	      2.58401410	      0.00000000	     -0.23619749	      0.35150747	      0.20917530	     -0.43864235	      0.46750494	      0.22224875	     -0.38804885	      0.85465527	      0.22224875	     -0.26995011	      0.85465527	      0.18302838	     -0.21933299	      0.71679404	      0.16995493	     -0.13496324	      0.54448507	      0.15688147	     -1.68713502	      3.97632283	      1.16337025	      0.00000000	      0.00000000	     15.38489057	     -8.78309494	      9.92532872	     16.64204736	    -12.17084140	    121.55440746	     13.80619353	      4.92957050	     -5.89904879	     -8.67395511	     -2.03037371	     -9.87775931	    -22.79150033	     97.89283514	     75.91754885	     -8.14229958	      2.91700245
